<svg width="776.9249992370605" height="800" viewBox="-379.5041666030884 -50 776.9249992370605 800" preserveAspectRatio="xMidYMid meet"><defs>
    <style type="text/css"><![CDATA[
      .link {
        fill: none;
        stroke: #ccc;
        stroke-width: 2px;
      }
    ]]></style>
  </defs>
  <g><path class="link" d="M0,0C0,50,0,50,0,100" style="stroke: green; stroke-width: 4px;"></path><path class="link" d="M0,100C0,150,0,150,0,200" style="stroke: green; stroke-width: 4px;"></path><path class="link" d="M0,200C0,250,-175.871,250,-175.871,300" style="stroke: orange; stroke-width: 4px;"></path><path class="link" d="M0,200C0,250,175.871,250,175.871,300" style="stroke: rgb(204, 204, 204); stroke-width: 4px;"></path><path class="link" d="M-175.871,300C-175.871,350,-251.912,350,-251.912,400" style="stroke: rgb(204, 204, 204); stroke-width: 4px;"></path><path class="link" d="M-175.871,300C-175.871,350,-99.829,350,-99.829,400" style="stroke: orange; stroke-width: 4px;"></path><path class="link" d="M175.871,300C175.871,350,105.354,350,105.354,400" style="stroke: rgb(204, 204, 204); stroke-width: 4px;"></path><path class="link" d="M175.871,300C175.871,350,246.387,350,246.387,400" style="stroke: rgb(204, 204, 204); stroke-width: 4px;"></path><path class="link" d="M-99.829,400C-99.829,450,-99.829,450,-99.829,500" style="stroke: rgb(204, 204, 204); stroke-width: 4px;"></path><path class="link" d="M105.354,400C105.354,450,105.354,450,105.354,500" style="stroke: rgb(204, 204, 204); stroke-width: 4px;"></path><path class="link" d="M-99.829,500C-99.829,550,-139.262,550,-139.262,600" style="stroke: rgb(204, 204, 204); stroke-width: 4px;"></path><path class="link" d="M-99.829,500C-99.829,550,-60.396,550,-60.396,600" style="stroke: rgb(204, 204, 204); stroke-width: 4px;"></path><path class="link" d="M-139.262,600C-139.262,650,-207.525,650,-207.525,700" style="stroke: rgb(204, 204, 204); stroke-width: 4px;"></path><path class="link" d="M-139.262,600C-139.262,650,-71,650,-71,700" style="stroke: rgb(204, 204, 204); stroke-width: 4px;"></path><g class="node" transform="translate(0,0)"><circle r="25" fill="green" stroke="yellow" stroke-width="6px"></circle><text text-anchor="middle" dy=".35em" style="font-size: 10px; fill: black;">Answer</text></g><g class="node" transform="translate(0,100)"><circle r="25" fill="green" stroke="yellow" stroke-width="6px"></circle><text text-anchor="middle" dy=".35em" style="font-size: 10px; fill: black;">Answer</text></g><g class="node" transform="translate(0,200)"><polygon points="0,-30 30,0 0,30 -30,0" fill="orange" stroke="black" stroke-width="2px"></polygon><text text-anchor="middle" dy=".35em" style="font-size: 20px; fill: black;">+</text></g><g class="node" transform="translate(-175.87083339691162,300)"><polygon points="0,-30 30,0 0,30 -30,0" fill="orange" stroke="black" stroke-width="2px"></polygon><text text-anchor="middle" dy=".35em" style="font-size: 20px; fill: black;">+</text></g><g class="node" transform="translate(175.87083339691162,300)"><polygon points="0,-30 30,0 0,30 -30,0" fill="blue" stroke="black" stroke-width="2px"></polygon><text text-anchor="middle" dy=".35em" style="font-size: 20px; fill: white;">×</text></g><g class="node" transform="translate(-251.9124994277954,400)"><rect x="-77.59166717529297" y="-15" width="155.18333435058594" height="30" style="fill: lightgray; stroke: green; stroke-width: 6px;"></rect><text text-anchor="middle" dy=".35em" style="font-size: 14px;">(exampleo 'dog 'fish)</text></g><g class="node" transform="translate(-99.82916736602783,400)"><rect x="-54.49166488647461" y="-15" width="108.98332977294922" height="30" style="fill: lightgray; stroke: yellow; stroke-width: 6px;"></rect><text text-anchor="middle" dy=".35em" style="font-size: 14px;">(fresh (a b) ...)</text></g><g class="node" transform="translate(105.3541669845581,400)"><circle r="20" fill="white" stroke="black" stroke-width="2px"></circle><line x1="0" y1="0" x2="0" y2="-10" stroke="black" stroke-width="3px"></line><line x1="0" y1="0" x2="11.313708498984761" y2="-11.31370849898476" stroke="black" stroke-width="2px"></line></g><g class="node" transform="translate(246.38749980926514,400)"><rect x="-101.03333282470703" y="-15" width="202.06666564941406" height="30" style="fill: lightgray; stroke: black; stroke-width: 2px;"></rect><text text-anchor="middle" dy=".35em" style="font-size: 14px;">(exampleo "lorem" "ipusm")</text></g><g class="node" transform="translate(-99.82916736602783,500)"><circle r="25" fill="purple" stroke="black" stroke-width="2px"></circle><text text-anchor="middle" dy=".35em" style="font-size: 20px; fill: white;">∧</text></g><g class="node" transform="translate(105.3541669845581,500)"><rect x="-60.18333435058594" y="-15" width="120.36666870117188" height="30" style="fill: lightgray; stroke: yellow; stroke-width: 6px;"></rect><text text-anchor="middle" dy=".35em" style="font-size: 14px;">(== "abc" "abc")</text></g><g class="node" transform="translate(-139.26249980926514,600)"><circle r="25" fill="#FF69B4" stroke="black" stroke-width="2px"></circle><text text-anchor="middle" dy=".35em" style="font-size: 20px; fill: black;">∨</text></g><g class="node" transform="translate(-60.39583492279053,600)"><rect x="-33.86666679382324" y="-15" width="67.73333358764648" height="30" style="fill: lightgray; stroke: black; stroke-width: 2px;"></rect><text text-anchor="middle" dy=".35em" style="font-size: 14px;">(== 1 2)</text></g><g class="node" transform="translate(-207.5250005722046,700)"><rect x="-46.150001525878906" y="-15" width="92.30000305175781" height="30" style="fill: lightgray; stroke: black; stroke-width: 2px;"></rect><text text-anchor="middle" dy=".35em" style="font-size: 14px;">(== a "def")</text></g><g class="node" transform="translate(-70.99999904632568,700)"><rect x="-70.375" y="-15" width="140.75" height="30" style="fill: lightgray; stroke: black; stroke-width: 2px;"></rect><text text-anchor="middle" dy=".35em" style="font-size: 14px;">(exampleo b "ghi")</text></g></g></svg>
