<svg width="289.6083297729492" height="300" viewBox="-177.10832977294922 -50 289.6083297729492 300" preserveAspectRatio="xMidYMid meet"><g><defs>
    <style type="text/css">
      .link {
        fill: none
      }
    </style>
  </defs><path class="link" d="M0,0C0,50,-37.5,50,-37.5,100" style="stroke: rgb(204, 204, 204); stroke-width: 4px;"></path><path class="link" d="M0,0C0,50,37.5,50,37.5,100" style="stroke: orange; stroke-width: 4px;"></path><path class="link" d="M-37.5,100C-37.5,150,-87.242,150,-87.242,200" style="stroke: rgb(204, 204, 204); stroke-width: 4px;"></path><path class="link" d="M-37.5,100C-37.5,150,12.242,150,12.242,200" style="stroke: rgb(204, 204, 204); stroke-width: 4px;"></path><g class="node" transform="translate(0,0)"><polygon points="0,-30 30,0 0,30 -30,0" fill="orange" stroke="black" stroke-width="2px" style="stroke: black; stroke-width: 2px;"></polygon><text text-anchor="middle" dy=".35em" style="font-size: 20px; fill: black;">+</text></g><g class="node" transform="translate(-37.5,100)"><polygon points="0,-30 30,0 0,30 -30,0" fill="blue" stroke="black" stroke-width="2px" style="stroke: black; stroke-width: 2px;"></polygon><text text-anchor="middle" dy=".35em" style="font-size: 20px; fill: white;">×</text></g><g class="node" transform="translate(37.5,100)"><circle r="25" fill="green" stroke="yellow" stroke-width="6px" style="stroke: yellow; stroke-width: 6px;"></circle></g><g class="node" transform="translate(-87.24166488647461,200)"><rect x="-39.86666679382324" y="-15" width="79.73333358764648" height="30" style="fill: lightgray; stroke: green; stroke-width: 6px;"></rect><text text-anchor="middle" dy=".35em" style="font-size: 14px;">(bar #(0))</text></g><g class="node" transform="translate(12.24166488647461,200)"><rect x="-39.61666679382324" y="-15" width="79.23333358764648" height="30" style="fill: lightgray; stroke: black; stroke-width: 2px;"></rect><text text-anchor="middle" dy=".35em" style="font-size: 14px;">(foo #(0))</text></g></g></svg>
