<svg width="336.04166412353516" height="400" viewBox="-186.2166633605957 -50 336.04166412353516 400" preserveAspectRatio="xMidYMid meet"><g><path class="link" d="M0,0C0,50,-46.608,50,-46.608,100" style="stroke: orange; stroke-width: 4px;"></path><path class="link" d="M0,0C0,50,46.608,50,46.608,100" style="stroke: rgb(204, 204, 204); stroke-width: 4px;"></path><path class="link" d="M-46.608,100C-46.608,150,-46.608,150,-46.608,200" style="stroke: black; stroke-width: 4px;"></path><path class="link" d="M-46.608,200C-46.608,250,-96.35,250,-96.35,300" style="stroke: blue; stroke-width: 4px;"></path><path class="link" d="M-46.608,200C-46.608,250,3.133,250,3.133,300" style="stroke: rgb(204, 204, 204); stroke-width: 4px;"></path><g class="node" transform="translate(0,0)"><polygon points="0,-30 30,0 0,30 -30,0" fill="orange" stroke="black" stroke-width="2px" style="stroke: black; stroke-width: 2px;"></polygon><text text-anchor="middle" dy=".35em" style="font-size: 20px; fill: black;">+</text></g><g class="node" transform="translate(-46.608333587646484,100)"><circle r="20" fill="white" stroke="black" stroke-width="2px" style="stroke: black; stroke-width: 2px;"></circle><line x1="0" y1="0" x2="0" y2="-10" stroke="black" stroke-width="3px"></line><line x1="0" y1="0" x2="11.313708498984761" y2="-11.31370849898476" stroke="black" stroke-width="2px"></line></g><g class="node" transform="translate(46.608333587646484,100)"><rect x="-53.21666717529297" y="-15" width="106.43333435058594" height="30" style="fill: lightgray; stroke: yellow; stroke-width: 6px;"></rect><text text-anchor="middle" dy=".35em" style="font-size: 14px;">(== true true)</text></g><g class="node" transform="translate(-46.608333587646484,200)"><polygon points="0,-30 30,0 0,30 -30,0" fill="blue" stroke="black" stroke-width="2px" style="stroke: black; stroke-width: 2px;"></polygon><text text-anchor="middle" dy=".35em" style="font-size: 20px; fill: white;">×</text></g><g class="node" transform="translate(-96.3499984741211,300)"><rect x="-39.86666679382324" y="-15" width="79.73333358764648" height="30" style="fill: lightgray; stroke: green; stroke-width: 6px;"></rect><text text-anchor="middle" dy=".35em" style="font-size: 14px;">(bar #(0))</text></g><g class="node" transform="translate(3.133331298828125,300)"><rect x="-39.61666679382324" y="-15" width="79.23333358764648" height="30" style="fill: lightgray; stroke: black; stroke-width: 2px;"></rect><text text-anchor="middle" dy=".35em" style="font-size: 14px;">(foo #(0))</text></g></g></svg>
