<svg width="346.04166412353516" height="300" viewBox="-191.2166633605957 -50 346.04166412353516 300" preserveAspectRatio="xMidYMid meet"><g><defs>
    <style type="text/css">
      .link {
        fill: none
      }
    </style>
  </defs>
  <path class="link" d="M0,0C0,50,-51.608,50,-51.608,100" style="stroke: orange; stroke-width: 4px;"></path><path class="link" d="M0,0C0,50,51.608,50,51.608,100" style="stroke: rgb(204, 204, 204); stroke-width: 4px;"></path><path class="link" d="M-51.608,100C-51.608,150,-101.35,150,-101.35,200" style="stroke: blue; stroke-width: 4px;"></path><path class="link" d="M-51.608,100C-51.608,150,-1.867,150,-1.867,200" style="stroke: rgb(204, 204, 204); stroke-width: 4px;"></path><g class="node" transform="translate(0,0)"><polygon points="0,-30 30,0 0,30 -30,0" fill="orange" stroke="black" stroke-width="2px"></polygon><text text-anchor="middle" dy=".35em" style="font-size: 20px; fill: black;">+</text></g><g class="node" transform="translate(-51.608333587646484,100)"><polygon points="0,-30 30,0 0,30 -30,0" fill="blue" stroke="black" stroke-width="2px"></polygon><text text-anchor="middle" dy=".35em" style="font-size: 20px; fill: white;">×</text></g><g class="node" transform="translate(51.608333587646484,100)"><rect x="-53.21666717529297" y="-15" width="106.43333435058594" height="30" style="fill: lightgray; stroke: yellow; stroke-width: 6px;"></rect><text text-anchor="middle" dy=".35em" style="font-size: 14px;">(== true true)</text></g><g class="node" transform="translate(-101.3499984741211,200)"><rect x="-39.86666679382324" y="-15" width="79.73333358764648" height="30" style="fill: lightgray; stroke: yellow; stroke-width: 6px;"></rect><text text-anchor="middle" dy=".35em" style="font-size: 14px;">(bar #(0))</text></g><g class="node" transform="translate(-1.866668701171875,200)"><rect x="-39.61666679382324" y="-15" width="79.23333358764648" height="30" style="fill: lightgray; stroke: black; stroke-width: 2px;"></rect><text text-anchor="middle" dy=".35em" style="font-size: 14px;">(foo #(0))</text></g></g></svg>
