<svg width="336.10833168029785" height="400" viewBox="-181.2833309173584 -50 336.10833168029785 400" preserveAspectRatio="xMidYMid meet"><g><path class="link" d="M0,0C0,50,-51.608,50,-51.608,100" style="stroke: orange; stroke-width: 4px;"></path><path class="link" d="M0,0C0,50,51.608,50,51.608,100" style="stroke: rgb(204, 204, 204); stroke-width: 4px;"></path><path class="link" d="M-51.608,100C-51.608,150,-91.417,150,-91.417,200" style="stroke: blue; stroke-width: 4px;"></path><path class="link" d="M-51.608,100C-51.608,150,-11.8,150,-11.8,200" style="stroke: rgb(204, 204, 204); stroke-width: 4px;"></path><path class="link" d="M-91.417,200C-91.417,250,-91.417,250,-91.417,300" style="stroke: black; stroke-width: 4px;"></path><g class="node" transform="translate(0,0)"><polygon points="0,-30 30,0 0,30 -30,0" fill="orange" stroke="black" stroke-width="2px" style="stroke: black; stroke-width: 2px;"></polygon><text text-anchor="middle" dy=".35em" style="font-size: 20px; fill: black;">+</text></g><g class="node" transform="translate(-51.608333587646484,100)"><polygon points="0,-30 30,0 0,30 -30,0" fill="blue" stroke="black" stroke-width="2px" style="stroke: black; stroke-width: 2px;"></polygon><text text-anchor="middle" dy=".35em" style="font-size: 20px; fill: white;">×</text></g><g class="node" transform="translate(51.608333587646484,100)"><rect x="-53.21666717529297" y="-15" width="106.43333435058594" height="30" style="fill: lightgray; stroke: yellow; stroke-width: 6px;"></rect><text text-anchor="middle" dy=".35em" style="font-size: 14px;">(== true true)</text></g><g class="node" transform="translate(-91.41666603088379,200)"><circle r="20" fill="white" stroke="black" stroke-width="2px" style="stroke: black; stroke-width: 2px;"></circle><line x1="0" y1="0" x2="0" y2="-10" stroke="black" stroke-width="3px"></line><line x1="0" y1="0" x2="11.313708498984761" y2="-11.31370849898476" stroke="black" stroke-width="2px"></line></g><g class="node" transform="translate(-11.80000114440918,200)"><rect x="-39.61666679382324" y="-15" width="79.23333358764648" height="30" style="fill: lightgray; stroke: black; stroke-width: 2px;"></rect><text text-anchor="middle" dy=".35em" style="font-size: 14px;">(foo #(0))</text></g><g class="node" transform="translate(-91.41666603088379,300)"><rect x="-39.86666679382324" y="-15" width="79.73333358764648" height="30" style="fill: lightgray; stroke: green; stroke-width: 6px;"></rect><text text-anchor="middle" dy=".35em" style="font-size: 14px;">(bar #(0))</text></g></g></svg>
